<svg width="1700" height="1059" viewBox="0 0 1700 1059" fill="none" xmlns="http://www.w3.org/2000/svg">
<mask id="mask0_0_1" style="mask-type:alpha" maskUnits="userSpaceOnUse" x="100" y="260" width="1600" height="799">
<path d="M100 261H1700V848L100 1059V261Z" fill="#172755"/>
</mask>
<g mask="url(#mask0_0_1)">
<g opacity="0.07">
<path d="M1932.47 535.985C1802.93 346.987 1585.44 223 1339 223C941.907 223 620 544.907 620 942C620 999.771 626.814 1055.95 639.681 1109.78L1005.82 743.636C1040.92 708.538 1097.83 708.538 1132.93 743.636L1428.88 1039.58L1932.47 535.985Z" fill="white"/>
<path d="M2017.93 704.734L1492.43 1230.24C1457.33 1265.34 1400.42 1265.34 1365.32 1230.24L1069.38 934.29L711.104 1292.56C834.1 1512.39 1069.2 1661 1339 1661C1736.09 1661 2058 1339.09 2058 942C2058 858.861 2043.89 779.017 2017.93 704.734Z" fill="white"/>
</g>
</g>
<g opacity="0.07">
<path d="M602.387 143.65C542.929 56.9056 443.11 -0.000732422 330 -0.000732422C147.746 -0.000732422 0 147.745 0 329.999C0 356.514 3.1273 382.299 9.03288 407.005L177.082 238.956C193.191 222.847 219.309 222.847 235.418 238.956L371.25 374.788L602.387 143.65Z" fill="#8794BA"/>
<path d="M641.609 221.101L400.418 462.292C384.309 478.402 358.191 478.402 342.082 462.292L206.25 326.461L41.814 490.897C98.2657 591.792 206.168 659.999 330 659.999C512.254 659.999 660 512.253 660 329.999C660 291.841 653.523 255.195 641.609 221.101Z" fill="#8794BA"/>
</g>
</svg>
