<svg width="22" height="22" viewBox="0 0 22 22" fill="none" xmlns="http://www.w3.org/2000/svg">
<path d="M22 11C22 5.04167 17.3223 0 11 0C4.93442 0 0 4.93442 0 11C0 17.0656 4.93442 22 11 22C17.5807 22 22 16.8053 22 11ZM21.0549 11.7636L18.1372 10.5838C18.0739 10.5518 18.0272 10.4949 18.0098 10.4253L17.435 8.12808C17.4093 8.0245 17.457 7.91083 17.5633 7.84942L19.9522 6.36167C20.6754 7.75133 21.0842 9.32892 21.0842 11C21.0842 11.2567 21.0732 11.5115 21.0549 11.7636ZM11 0.916667C11.0871 0.916667 11.1751 0.917583 11.2613 0.920333C10.6718 1.7105 9.75792 2.94067 9.58833 3.20283C9.22808 3.76017 9.21708 4.46233 9.559 5.03342L10.2309 6.15358L9.59017 5.83275C8.95217 5.51283 8.18767 5.63842 7.68808 6.14167L7.20317 6.62658C6.8915 6.93733 6.721 7.35167 6.721 7.79167C6.721 7.94842 6.74208 8.10242 6.78517 8.25H5.13517C5.03525 8.25 4.93717 8.20875 4.86567 8.13267L2.45942 5.64667C4.24417 2.80775 7.40575 0.916667 11 0.916667ZM11 21.0833C5.44042 21.0833 0.916667 16.5596 0.916667 11C0.916667 9.37567 1.3035 7.84025 1.98825 6.479L4.20292 8.76608C4.44492 9.02 4.78408 9.16667 5.13517 9.16667H6.92083C7.18667 9.16667 7.43692 9.27025 7.62575 9.45817L7.96675 9.80008C8.14733 9.98067 8.25092 10.23 8.25092 10.4839V11.3667C8.25092 11.7232 8.38933 12.0569 8.6405 12.3063L9.73042 13.3971C9.95867 13.6253 10.0843 13.9288 10.0843 14.2505V16.4184C10.0843 16.9693 10.5325 17.4176 11.0834 17.4176H11.2787C11.6673 17.4176 12.023 17.1893 12.1853 16.8373L14.2395 12.3869C14.4843 11.858 14.2963 11.2273 13.8013 10.9193L11.4528 9.44992C11.1568 9.26567 10.8158 9.16758 10.4665 9.16758H9.15475C8.87058 9.16758 8.59375 9.053 8.39392 8.85225L7.85125 8.30958C7.71375 8.17208 7.63767 7.98783 7.63767 7.79258C7.63767 7.59733 7.71375 7.41308 7.85125 7.27558L8.33708 6.78975C8.55892 6.567 8.899 6.512 9.18042 6.65408L9.98617 7.0565C10.3198 7.22517 10.7232 7.15917 10.9808 6.89517C11.2622 6.61375 11.3162 6.18108 11.1137 5.84192L10.3455 4.56225C10.1842 4.29275 10.1897 3.96275 10.3593 3.70058C10.5343 3.43017 11.7315 1.82417 12.3429 1.0065C15.3413 1.40708 17.9272 3.1295 19.4929 5.56783L17.0922 7.06292C16.6467 7.31958 16.4221 7.8485 16.5458 8.349L17.1206 10.6453C17.2022 10.9753 17.424 11.2521 17.7613 11.418L20.9394 12.7041C20.1273 17.4552 15.9803 21.0824 11.0009 21.0824L11 21.0833ZM10.3776 12.7481L9.28675 11.6563C9.20975 11.5793 9.16667 11.4767 9.16667 11.3658V10.483C9.16667 10.3483 9.15108 10.2135 9.12267 10.0824C9.13367 10.0824 9.14283 10.0824 9.15383 10.0824H10.4656C10.6425 10.0824 10.8167 10.1319 10.9679 10.2254L13.3164 11.6948C13.4191 11.759 13.4576 11.8901 13.4072 12.0001L11.2787 16.4991H11.0834C11.0385 16.4991 11.0009 16.4615 11.0009 16.4166V14.2487C11.0009 13.6822 10.78 13.1487 10.3785 12.7472L10.3776 12.7481Z" fill="#54BD95"/>
</svg>
